<svg viewBox="-0.62 -0.621 141.732 121.732" xmlns="http://www.w3.org/2000/svg">
    <g>
        <path fill="#162E4D" d="M112.064,53.52c3.08,0,5.576-2.496,5.576-5.575s-2.496-5.574-5.576-5.574H98.125V28.43c0-3.079-2.496-5.575-5.574-5.575   c-3.08,0-5.576,2.496-5.576,5.575v13.938H73.035c-3.078,0-5.574,2.495-5.574,5.574s2.496,5.575,5.574,5.575h13.939v13.938   c0,3.079,2.496,5.575,5.573,5.575c3.078,0,5.574-2.496,5.574-5.575V53.52H112.064z M115.365,70.381   C103.637,82.109,85.07,82.83,72.5,72.543l-4.55-4.553c-10.287-12.568-9.566-31.137,2.162-42.863   c12.496-12.497,32.757-12.497,45.253,0C127.861,37.623,127.861,57.885,115.365,70.381 M126.434,14.059   c-18.746-18.745-49.137-18.745-67.879,0c-16.816,16.815-18.535,43.002-5.178,61.747l-51.03,51.029   c-3.125,3.124-3.125,8.188,0,11.312c3.123,3.124,8.189,3.124,11.312,0L64.686,87.12c18.746,13.354,44.931,11.64,61.748-5.181   C145.178,63.195,145.178,32.804,126.434,14.059"/>
    </g>
</svg>