<svg xmlns="http://www.w3.org/2000/svg" viewBox="0 0 505 175">
<g>
	<g>
		<linearGradient id="SVGID_1_" gradientUnits="userSpaceOnUse" x1="386.7821" y1="87.5415" x2="339.1311" y2="39.8905">
			<stop  offset="0" style="stop-color:#1D3251"/>
			<stop  offset="1" style="stop-color:#69B1E3"/>
		</linearGradient>
		<path fill="url(#SVGID_1_)" d="M380.9,45.4L335.8,2.2l-4.6,4.4c-9,8.6-9,22.7,0,31.4l28.7,27.5c9,8.6,9,22.7,0,31.4l21-20.1
			C389.9,68.1,389.9,54,380.9,45.4L380.9,45.4z"/>
		<linearGradient id="SVGID_2_" gradientUnits="userSpaceOnUse" x1="348.5857" y1="90.3369" x2="321.0839" y2="60.1237">
			<stop  offset="0" style="stop-color:#1D3251"/>
			<stop  offset="1" style="stop-color:#69B1E3"/>
		</linearGradient>
		<path fill="url(#SVGID_2_)" d="M359.9,65.5l-22.5-21.6l-4.6,4.4c-9,8.6-9,22.7,0,31.4l6.2,5.9c9,8.6,9,22.7,0,31.4l21-20.1
			C368.9,88.2,368.9,74.1,359.9,65.5L359.9,65.5z"/>
		<linearGradient id="SVGID_3_" gradientUnits="userSpaceOnUse" x1="349.3465" y1="75.4767" x2="304.5126" y2="33.7891">
			<stop  offset="0" style="stop-color:#1D3251"/>
			<stop  offset="1" style="stop-color:#69B1E3"/>
		</linearGradient>
		<path fill="url(#SVGID_3_)" d="M359.9,65.5l-22.5-21.6l-4.6,4.4l0,0L355.2,70c9,8.6,9,22.7,0,31.4l4.6-4.5C368.9,88.2,368.9,74.1,359.9,65.5
			L359.9,65.5z"/>
	</g>
</g>
<g>
	<g>
		<path fill="#182D4D" d="M102.8,164.7c1.8,1.8,2.6,4.3,2.5,7.5h-45l9-42.8c0.6-2.8,2.3-5.3,5.1-7.5c2.7-2,5.7-3.1,9.1-3.1h33.1
			c-1.3,3.2-3.1,5.7-5.7,7.5c-2.6,1.9-5.3,2.9-8.2,2.9l-18.4-0.1c-2,0-3.2,1-3.6,2.9L75,159.1c-0.4,2,0.4,2.9,2.3,2.9h18.4
			C98.7,162,101,162.9,102.8,164.7z"/>
		<path fill="#182D4D" d="M155.7,164.7c1.8,1.8,2.6,4.3,2.5,7.5h-45l9-42.8c0.6-2.8,2.3-5.3,5.1-7.5c2.7-2,5.7-3.1,9.1-3.1h33.1
			c-1.3,3.2-3.1,5.7-5.7,7.5c-2.6,1.9-5.3,2.9-8.2,2.9l-18.4-0.1c-2,0-3.2,1-3.6,2.9l-5.7,27.1c-0.4,2,0.4,2.9,2.3,2.9h18.4
			C151.5,162,153.9,162.9,155.7,164.7z"/>
		<path fill="#182D4D" d="M183.1,161.9H214c-1.2,3.1-3.1,5.6-5.6,7.4c-1.3,0.9-2.6,1.6-4,2.1c-1.4,0.5-2.8,0.7-4.2,0.7l-34.1-0.1
			l9-42.7c0.6-2.8,2.3-5.3,5-7.5c2.7-2,5.7-3.1,9.1-3.1h33.9c-1.2,3.2-3.1,5.6-5.6,7.5c-1.3,0.9-2.6,1.6-4,2.1
			c-1.4,0.5-2.8,0.7-4.2,0.7l-19.3-0.1c-2-0.1-3.2,0.9-3.6,2.9l-1.1,5.4c-0.4,2,0.4,3,2.4,3h19.1c-1.2,3.1-1.6,5.6-4.2,7.5
			c-1.3,0.9-2.6,1.6-3.9,2.1c-1.4,0.5-2.8,0.7-4.2,0.7l-8.9-0.1c-2,0-3.2,1-3.6,3l-1.1,5.4C180.3,160.9,181.1,161.9,183.1,161.9z"/>
		<path fill="#182D4D" d="M287.1,161.9H318c-1.2,3.1-3.1,5.6-5.6,7.4c-1.3,0.9-2.6,1.6-4,2.1c-1.4,0.5-2.8,0.7-4.2,0.7l-34.1-0.1
			l9-42.7c0.6-2.8,2.3-5.3,5-7.5c2.7-2,5.7-3.1,9.1-3.1h33.9c-1.2,3.2-3.1,5.6-5.6,7.5c-1.3,0.9-2.6,1.6-4,2.1
			c-1.4,0.5-2.8,0.7-4.2,0.7l-19.3-0.1c-2-0.1-3.2,0.9-3.6,2.9l-1,5.2c-0.4,2,0.4,3,2.4,3h19.1c-1.2,3.1-1.6,5.6-4.2,7.5
			c-1.3,0.9-2.6,1.6-3.9,2.1c-1.4,0.5-2.8,0.7-4.2,0.7l-8.9-0.1c-2,0-3.2,1-3.6,3l-1.3,5.6C284.3,160.9,285.1,161.9,287.1,161.9z"/>
		<path fill="#182D4D" d="M235.8,161.9h29.9c-1.2,3.2-3.1,5.6-5.6,7.5c-2.7,1.9-5.4,2.9-8.2,2.9h-33.3l9-42.9c0.5-2.4,2-4.7,4.5-6.7
			c2.4-2,5.6-3.2,9.7-3.7l-8.4,40C233,160.9,233.8,161.9,235.8,161.9z"/>
	</g>
</g>
<g>
	<g>
		<path fill="#69B1E3" d="M329.9,132.7h30.9c-0.4,2.3-1.4,4.1-3,5.4c-1.6,1.4-3.4,2.1-5.6,2.1h-4.5c-1.5,0-2.2,0.7-2.2,2.2v21.9
			c0,1.9-0.7,3.5-2.1,4.9c-1.5,1.5-3.7,2.4-6.7,2.8v-29.6c0-1.5-0.7-2.2-2.2-2.2h-13.2c0.2-1.2,0.6-2.2,1.1-3.1
			c0.5-0.9,1.1-1.7,2-2.4C325.9,133.4,327.8,132.7,329.9,132.7z"/>
		<path fill="#69B1E3" d="M398.3,135c1.7,1.6,2.6,3.5,2.6,5.6v7.9c0,1.4-0.4,2.8-1.3,4c0.9,1.2,1.3,2.6,1.3,4v15.6
			c-2.9-0.3-5.1-1.3-6.7-2.8c-1.4-1.3-2.1-3-2.1-4.9v-6c0-1.4-0.7-2.2-2.2-2.2h-14.4v15.8c-1.5-0.2-2.8-0.5-4-0.9
			c-1.2-0.5-2.1-1.1-2.9-1.8c-1.5-1.5-2.3-3.2-2.3-5v-31.6h25.8C394.6,132.7,396.7,133.5,398.3,135z M391.8,142.4
			c0-1.5-0.7-2.2-2.2-2.2l-14.1,0v8.5l14.1-0.1c1.5,0,2.2-0.7,2.2-2.2V142.4z"/>
		<path fill="#69B1E3" d="M418.1,132.7v31.6c0,1.8-0.8,3.5-2.3,5c-1.5,1.5-3.7,2.4-6.6,2.7v-31.6c0-1.8,0.8-3.5,2.3-5
			C413,133.9,415.2,133,418.1,132.7z"/>
		<path fill="#69B1E3" d="M480.5,164.5h21.9c-0.4,2.3-1.4,4.2-3,5.5c-1.7,1.4-3.6,2.1-5.6,2.1h-24.4v-31.7c0-1.8,0.8-3.5,2.3-5
			c1.5-1.4,3.6-2.3,6.6-2.7v29.6C478.3,163.7,479.1,164.5,480.5,164.5z"/>
	</g>
	<path fill="#69B1E3" d="M458.9,135c-1.8-1.5-3.9-2.3-6.5-2.3h-16.6c-2.6,0-4.7,0.8-6.5,2.3c-1.8,1.6-2.7,3.4-2.7,5.6v31.5
		c3.1-0.4,5.4-1.3,7-2.8c1.5-1.4,2.2-3,2.2-4.9v-6c0-1.5,0.8-2.2,2.3-2.2h11.9c1.5,0,2.3,0.7,2.3,2.2v6c0,1.9,0.7,3.5,2.2,4.9
		c1.6,1.5,3.9,2.4,7,2.8v-31.5C461.6,138.4,460.7,136.6,458.9,135z M452.4,146.5c0,1.4-0.8,2.2-2.3,2.2h-11.9
		c-1.5,0-2.3-0.7-2.3-2.2v-4c0-1.5,0.8-2.2,2.3-2.2h11.9c1.5,0,2.3,0.7,2.3,2.2V146.5z"/>
</g>
<path fill="#182D4D" d="M56.1,121.9c-2-2-4.7-3.1-8.2-3.1h-22c-3.5,0-6.6,1-9.4,3.1c-2.9,2.1-4.6,4.6-5.2,7.5l-8.8,42.7
	c4.2-0.5,7.6-1.8,10.2-3.8c2.4-1.9,3.8-4.1,4.4-6.7l1.7-8.1c0.4-2,1.7-3,3.8-3h15.7c2.1,0,2.9,1,2.5,3l-1.7,8.1
	c-0.5,2.6,0,4.8,1.6,6.7c1.7,2,4.6,3.3,8.6,3.8l8.8-42.7C58.7,126.6,58,124.1,56.1,121.9z M44,137.5c-0.4,2-1.7,2.9-3.7,2.9H24.6
	c-2.1,0-2.9-1-2.5-2.9l1.1-5.5c0.4-2,1.7-3,3.8-3h15.7c2.1,0,2.9,1,2.5,3L44,137.5z"/>
</svg>
