<svg xmlns="http://www.w3.org/2000/svg" viewBox="0 0 110 84">
<g>
    <path fill="#6AB1E2" d="M94.7,4.6H49v2.6h45.6c4.3,0,7.8,3.5,7.8,7.8v53.2c0,4.3-3.5,7.8-7.8,7.8H15.4c-4.3,0-7.8-3.5-7.8-7.8V15
        c0-4.3,3.5-7.8,7.8-7.8h21.9c1.4,0,2.7,0.6,3.6,1.7c0.7,0.9,1.1,2,1.1,3.1l0,40.8c0,1.6,0.6,2.8,1.7,3.5c1.1,0.7,2.4,0.6,3.8-0.1
        l20.6-10.7c1.9-1,2.2-2.3,2.2-3c0-0.7-0.3-2-2.2-3L49,29.6v3.2l17.9,9.1c0.6,0.3,0.7,0.6,0.7,0.6c0,0.1-0.1,0.3-0.7,0.6L46.2,53.7
        c-0.5,0.2-0.9,0.3-1.1,0.2c-0.3-0.2-0.4-0.6-0.4-1.2V11.9c0-1.3-0.3-2.6-1-3.7c-1.3-2.3-3.7-3.7-6.3-3.7H15.4C9.7,4.6,5,9.2,5,15
        v53.2c0,5.7,4.6,10.4,10.4,10.4h79.3c5.7,0,10.4-4.7,10.4-10.4V15C105,9.2,100.4,4.6,94.7,4.6z"/>
    <g>
        <path fill="#182D4D" d="M49.1,36.9c0-0.5,0.4-0.8,0.9-0.5l11.2,5.7c0.5,0.2,0.5,0.7,0,0.9L50,48.6c-0.5,0.2-0.9,0-0.9-0.5V36.9z"/>
    </g>
</g>
</svg>
