<svg xmlns="http://www.w3.org/2000/svg" viewBox="0 0 1201 2191.05"><path fill="#6ab1e2" d="M1268.72,969.06a417.59,417.59,0,0,0-96.34-140.15h0L316.71,4.9l-.35-.33L227.88,89.71a418.52,418.52,0,0,0-96.14,140.18,413.19,413.19,0,0,0,.07,319.05,417,417,0,0,0,96.07,139.68L344.79,801.17l-87.17,84.44a416,416,0,0,0-96.19,139.58,413,413,0,0,0-.12,319.18,417.55,417.55,0,0,0,96.31,140.13l117.29,112.93a415,415,0,0,1,95.68,139.25,413.1,413.1,0,0,1,.12,318.42,416.59,416.59,0,0,1-95.8,139.79h0l.69.72L685.47,1896.8l.23.24,1.14-1.1,86.91-84.26,398.64-383.9a415.83,415.83,0,0,0,96.2-139.54,412.86,412.86,0,0,0,.13-319.18ZM885.91,1401.42a409.68,409.68,0,0,1,15.16,110.89q0,2.58,0,5.15a409.18,409.18,0,0,1-32,154q-6.19,14.75-13.45,28.91-2.42,4.72-5,9.37t-5.2,9.23q-4.73,8.15-9.83,16.08-1.09,1.7-2.2,3.39a422.66,422.66,0,0,1-58.83,71.07L773,1811l-64.27,62A414.51,414.51,0,0,0,813.66,1597a411.21,411.21,0,0,0-32.06-159.36,415.86,415.86,0,0,0-95.9-139.53L258.19,886.46l87.33-84.6L773,1213.49a418.67,418.67,0,0,1,82.57,110.71q7.27,14.16,13.46,28.92A413.23,413.23,0,0,1,885.91,1401.42ZM471.63,2055.49a414.1,414.1,0,0,0-.12-319.2,416,416,0,0,0-95.91-139.58L258.31,1483.78A416.55,416.55,0,0,1,162.24,1344a412,412,0,0,1,.12-318.41,414.88,414.88,0,0,1,95.11-138.42L685,1298.86a414.86,414.86,0,0,1,95.67,139.2,413.1,413.1,0,0,1,.14,318.42,415.42,415.42,0,0,1-84.24,128.23L395.91,2174.64A415.51,415.51,0,0,0,471.63,2055.49Zm796-767.64a414.85,414.85,0,0,1-96,139.21L794.37,1790.42l.57-.65q2.61-2.89,5.16-5.81l.64-.74q2.41-2.78,4.76-5.6l.79-.94q2.47-3,4.88-6l1-1.25q2.43-3.06,4.8-6.15l.46-.61q2.26-3,4.46-6l.74-1q2.27-3.12,4.49-6.27l.87-1.25q2.24-3.22,4.43-6.48l.3-.46q2.1-3.15,4.14-6.34l.69-1.08q2.07-3.25,4.07-6.53l.77-1.27q2-3.37,4-6.78l.18-.31q1.92-3.33,3.78-6.69l.65-1.18q1.85-3.37,3.63-6.77l.68-1.31q1.83-3.51,3.6-7.05l.09-.18q1.73-3.49,3.39-7l.61-1.29q1.63-3.47,3.19-7l.6-1.37q1.61-3.64,3.16-7.31a410.29,410.29,0,0,0,32.09-159.5q0-5.17-.13-10.32A410.14,410.14,0,0,0,870,1352.74a414.58,414.58,0,0,0-23.67-47.65q-2.66-4.6-5.45-9.12-1.39-2.26-2.81-4.51a423.37,423.37,0,0,0-64.33-78.68l-427.88-412-.35-.33h0L228.58,687.89a416,416,0,0,1-95.84-139.34,412.19,412.19,0,0,1-.07-318.28A417.54,417.54,0,0,1,228.58,90.43L316.36,6l855.32,823.68a416.59,416.59,0,0,1,96.11,139.82,411.86,411.86,0,0,1-.13,318.4Z" transform="translate(-99.74 -4.57)"/></svg>