<svg xmlns="http://www.w3.org/2000/svg" viewBox="0 0 26.01 47"><path fill="#6ab1e2" d="M36.26,19.11,18.08,1.5,15.9,3.61a9.23,9.23,0,0,0,0,13.28l2.06,2L16.52,20.3h0l-.36.37h0a9.19,9.19,0,0,0,.37,12.89L19,36a8.2,8.2,0,0,1,0,11.8h0l.69.74,6.46-6.27h0l0,0L28,40.45h0l8.3-8a9.22,9.22,0,0,0,0-13.28ZM29.71,34.81c0,.05,0,.1,0,.16l0,.13q-.06.37-.15.72l0,.09,0,.19a8.08,8.08,0,0,1-.32.92l0,.07a8.11,8.11,0,0,1-.42.81l0,.08a9.28,9.28,0,0,0,.31-2.39A9.17,9.17,0,0,0,26.12,29l-8.54-8.27,1.11-1.08,8.57,8.3a8.17,8.17,0,0,1,2.52,5.9A8.28,8.28,0,0,1,29.71,34.81Zm-10.06.41-2.44-2.37a8.16,8.16,0,0,1-.34-11.44l8.56,8.29a8.19,8.19,0,0,1,.11,11.68L22,44.83a9.25,9.25,0,0,0-2.33-9.61Zm15.92-3.56-5.28,5.12,0-.13.08-.27c.05-.18.1-.37.14-.56l.06-.3c0-.19.06-.39.09-.58s0-.18,0-.27c0-.28,0-.57,0-.86A9.18,9.18,0,0,0,28,27.16l-11.36-11a8.19,8.19,0,0,1,0-11.8l1.49-1.45L35.57,19.85a8.18,8.18,0,0,1,0,11.8Z" transform="translate(-13.08 -1.5)"/></svg>