<svg viewBox="0 0 141.732 121.732" xmlns="http://www.w3.org/2000/svg">
    <g>
        <path fill="#162E4D" d="M111.939,53.462c3.074,0,5.568-2.494,5.568-5.57c0-3.074-2.494-5.567-5.568-5.567H72.954c-3.075,0-5.567,2.493-5.567,5.567   c0,3.076,2.492,5.57,5.567,5.57H111.939z M115.237,70.304c-11.714,11.716-30.26,12.435-42.816,2.159l-4.545-4.544   c-10.274-12.556-9.555-31.102,2.159-42.817c12.485-12.485,32.726-12.485,45.202,0C127.72,37.584,127.72,57.82,115.237,70.304    M126.295,14.044c-18.727-18.724-49.084-18.724-67.808,0c-16.8,16.798-18.518,42.955-5.175,61.679L2.341,126.696   c-3.121,3.12-3.121,8.18,0,11.302c3.122,3.122,8.178,3.122,11.301,0l50.973-50.975c18.724,13.34,44.879,11.625,61.68-5.175   C145.018,63.126,145.018,32.769,126.295,14.044"/>
    </g>
</svg>